<?xml version="1.0" standalone="no"?>
<!DOCTYPE svg PUBLIC "-//W3C//DTD SVG 20010904//EN"
 "http://www.w3.org/TR/2001/REC-SVG-20010904/DTD/svg10.dtd">
<svg version="1.0" xmlns="http://www.w3.org/2000/svg"
 width="300.000000pt" height="74.000000pt" viewBox="0 0 300.000000 74.000000"
 preserveAspectRatio="xMidYMid meet">
<metadata>
Created by potrace 1.10, written by Peter Selinger 2001-2011
</metadata>
<g transform="translate(0.000000,74.000000) scale(0.100000,-0.100000)"
fill="#000000" stroke="none">
<path d="M126 633 c-3 -16 -8 -64 -11 -108 -4 -44 -13 -149 -21 -234 -8 -85
-14 -169 -14 -188 l0 -33 145 0 c159 0 212 12 281 65 131 100 153 346 41 459
-57 56 -96 66 -270 66 l-145 0 -6 -27z m272 -119 c79 -55 66 -242 -22 -295
-19 -12 -50 -19 -79 -19 -44 0 -47 2 -43 23 3 12 10 86 17 165 l12 142 46 0
c26 0 56 -7 69 -16z"/>
<path d="M1730 648 c0 -7 -11 -136 -25 -287 -14 -151 -25 -278 -25 -283 0 -5
37 -8 83 -6 l82 3 8 85 c4 47 11 112 15 145 l7 60 89 -147 89 -148 83 0 c62 0
84 3 84 13 0 7 11 134 25 282 14 149 25 276 25 283 0 10 -20 12 -82 10 l-83
-3 -12 -120 c-7 -66 -13 -131 -15 -145 -2 -20 -21 5 -92 123 l-89 147 -83 0
c-61 0 -84 -3 -84 -12z"/>
<path d="M2515 618 c-3 -24 -12 -122 -20 -218 -8 -96 -18 -210 -21 -253 l-7
-77 207 0 c157 0 208 3 210 13 3 6 7 36 10 65 l5 52 -124 0 -125 0 0 50 0 50
84 0 83 0 7 46 c12 88 16 84 -75 84 l-80 0 3 48 3 47 125 5 125 5 5 58 c3 32
3 60 1 63 -2 2 -96 4 -207 4 l-203 0 -6 -42z"/>
<path d="M1018 641 c-82 -27 -170 -115 -193 -194 -31 -106 -12 -204 57 -282
64 -73 116 -98 215 -103 47 -3 83 -1 83 5 0 15 -23 33 -41 33 -13 0 -18 14
-23 65 -10 99 1 161 33 182 l26 17 -25 6 c-19 4 -26 13 -28 38 -4 35 -1 37 65
46 39 6 43 4 49 -19 9 -35 30 -25 27 12 -2 25 3 32 33 47 20 9 38 16 39 14 10
-12 35 -70 35 -81 0 -14 28 -32 36 -24 11 11 -33 102 -68 142 -65 73 -117 98
-212 102 -45 1 -93 -2 -108 -6z m-15 -86 l-35 -54 -30 15 c-29 15 -29 16 -11
36 19 22 80 57 100 58 6 0 -4 -25 -24 -55z m95 -12 c-3 -74 -2 -73 -76 -57
-21 4 -22 6 -8 33 20 37 65 91 77 91 6 0 9 -29 7 -67z m66 36 c15 -17 33 -44
42 -60 14 -27 13 -29 -8 -33 -74 -16 -73 -17 -76 57 -2 38 1 67 7 67 5 0 21
-14 35 -31z m74 12 c20 -10 45 -28 55 -39 18 -20 18 -21 -11 -36 l-30 -15 -36
54 c-39 59 -35 65 22 36z m-315 -98 c18 -10 33 -18 35 -19 1 -1 -3 -24 -9 -53
l-11 -51 -50 0 -50 0 7 36 c6 35 35 104 43 104 2 0 18 -8 35 -17z m165 -49 c8
-2 12 -16 10 -36 l-3 -33 -62 -3 -63 -3 6 33 c10 59 10 59 56 52 24 -3 49 -8
56 -10z m-139 -155 c6 -29 10 -52 9 -53 -2 -1 -17 -9 -35 -18 -17 -10 -33 -18
-36 -18 -8 0 -47 98 -47 119 0 18 6 21 49 21 l49 0 11 -51z m146 11 c0 -34 -1
-35 -50 -42 -27 -4 -53 -4 -56 0 -4 4 -9 24 -12 45 l-6 38 62 -3 62 -3 0 -35z
m5 -135 c0 -36 -4 -65 -9 -65 -12 0 -58 54 -76 90 -17 33 -11 38 48 39 l37 1
0 -65z m-97 -12 c20 -29 31 -53 26 -53 -18 0 -84 38 -102 58 -18 20 -18 21 10
35 15 9 29 15 30 14 0 -1 17 -26 36 -54z"/>
<path d="M1245 366 c-98 -42 -124 -173 -52 -250 78 -82 213 -62 261 38 35 74
11 154 -63 203 -39 26 -99 30 -146 9z m55 -36 c0 -11 5 -20 10 -20 6 0 10 9
10 20 0 11 5 20 10 20 6 0 10 -8 10 -17 0 -10 14 -26 31 -35 26 -16 30 -22 24
-47 -3 -17 -2 -32 4 -36 15 -8 14 -48 -1 -63 -7 -7 -21 -12 -31 -12 -10 0 -21
-9 -24 -20 -6 -23 -23 -27 -23 -5 0 8 -4 15 -10 15 -5 0 -10 -7 -10 -15 0 -8
-4 -15 -10 -15 -5 0 -10 6 -10 14 0 8 -10 16 -22 18 -25 4 -37 28 -14 28 13 0
16 12 16 60 0 47 -3 60 -15 60 -8 0 -15 7 -15 15 0 9 9 15 25 15 18 0 25 5 25
20 0 11 5 20 10 20 6 0 10 -9 10 -20z"/>
<path d="M1300 261 c0 -16 6 -21 26 -21 33 0 30 33 -4 38 -17 3 -22 -2 -22
-17z"/>
<path d="M1300 185 c0 -26 22 -33 49 -16 21 13 5 41 -24 41 -20 0 -25 -5 -25
-25z"/>
</g>
</svg>
