<?xml version="1.0" standalone="no"?>
<!DOCTYPE svg PUBLIC "-//W3C//DTD SVG 20010904//EN"
 "http://www.w3.org/TR/2001/REC-SVG-20010904/DTD/svg10.dtd">
<svg version="1.0" xmlns="http://www.w3.org/2000/svg"
 width="900.000000pt" height="900.000000pt" viewBox="0 0 900.000000 900.000000"
 preserveAspectRatio="xMidYMid meet">
<metadata>
Created by potrace 1.10, written by Peter Selinger 2001-2011
</metadata>
<g transform="translate(0.000000,900.000000) scale(0.100000,-0.100000)"
fill="#000000" stroke="none">
<path d="M0 8980 c0 -11 5 -20 10 -20 6 0 10 9 10 20 0 11 -4 20 -10 20 -5 0
-10 -9 -10 -20z"/>
<path d="M66 8985 c4 -8 10 -15 14 -15 4 0 10 7 14 15 4 10 -1 15 -14 15 -13
0 -18 -5 -14 -15z"/>
<path d="M126 8985 c4 -10 20 -15 44 -15 24 0 40 5 44 15 4 12 -4 15 -44 15
-40 0 -48 -3 -44 -15z"/>
<path d="M306 8985 c4 -10 20 -15 44 -15 24 0 40 5 44 15 4 12 -4 15 -44 15
-40 0 -48 -3 -44 -15z"/>
<path d="M8766 8985 c4 -10 20 -15 44 -15 24 0 40 5 44 15 4 12 -4 15 -44 15
-40 0 -48 -3 -44 -15z"/>
<path d="M8944 8980 c0 -15 7 -20 28 -20 21 0 28 5 28 20 0 15 -7 20 -28 20
-21 0 -28 -5 -28 -20z"/>
<path d="M36 8940 c-5 -14 1 -8887 6 -8895 4 -7 1563 -10 4445 -9 l4438 1 23
-20 c20 -18 24 -16 21 11 0 4 -6 6 -13 5 -9 -2 -12 922 -12 4454 l0 4457
-4453 1 c-2449 0 -4454 -2 -4455 -5z m3218 -1620 c33 -5 95 -14 136 -20 138
-18 205 -30 220 -39 9 -5 35 -12 58 -16 23 -4 44 -11 48 -16 3 -5 15 -9 27 -9
12 0 35 -7 51 -15 15 -8 33 -15 38 -15 12 0 86 -33 163 -72 169 -85 353 -238
454 -378 22 -30 44 -60 48 -66 4 -5 16 -26 26 -45 11 -19 25 -45 33 -59 7 -14
23 -47 34 -75 11 -27 24 -57 29 -65 5 -9 12 -31 16 -50 4 -19 11 -39 15 -45 4
-5 11 -30 14 -55 4 -25 12 -56 17 -70 5 -14 15 -92 22 -175 9 -119 9 -184 0
-315 -7 -91 -17 -176 -22 -190 -5 -14 -12 -43 -16 -65 -7 -41 -30 -125 -45
-160 -5 -11 -15 -36 -24 -55 -8 -19 -18 -46 -21 -59 -6 -20 -44 -89 -93 -168
-102 -165 -319 -375 -480 -463 -15 -8 -29 -17 -32 -20 -6 -7 -140 -71 -195
-94 -22 -9 -47 -21 -55 -25 -9 -5 -31 -12 -50 -16 -19 -4 -39 -11 -45 -15 -10
-7 -49 -19 -160 -46 -75 -19 -207 -42 -305 -54 -98 -11 -596 -12 -680 0 -186
25 -227 31 -252 41 -14 6 -36 8 -47 4 l-21 -6 -2 -1147 -3 -1147 -104 -3 c-58
-1 -107 1 -110 7 -3 5 -4 1176 -1 2603 l5 2593 80 12 c118 17 222 32 295 43
36 6 128 15 205 21 76 5 141 12 144 14 9 9 524 5 585 -5z m3811 -2539 l30 -6
0 -95 0 -95 -142 -2 c-78 -1 -150 -6 -160 -11 -10 -5 -37 -13 -60 -17 -24 -4
-45 -11 -49 -16 -3 -5 -13 -9 -22 -9 -25 0 -144 -63 -210 -111 -63 -47 -192
-173 -219 -217 -10 -15 -21 -31 -26 -37 -42 -53 -111 -174 -147 -260 -12 -27
-25 -59 -30 -70 -5 -11 -19 -51 -30 -90 -12 -38 -25 -77 -28 -85 -26 -67 -62
-291 -72 -450 -5 -74 -9 -601 -9 -1170 -1 -569 -1 -1041 -1 -1047 0 -10 -29
-13 -110 -13 -81 0 -110 3 -110 13 0 6 0 649 -1 1427 0 778 -5 1575 -11 1770
-5 195 -11 390 -12 434 l-1 79 100 -2 c64 -2 102 -7 107 -14 7 -11 15 -602 10
-683 -3 -35 14 -88 25 -80 10 5 34 53 63 121 51 120 92 191 172 297 67 88 180
203 241 245 23 15 44 30 47 33 8 10 110 70 118 70 4 1 25 9 47 20 22 11 47 19
56 20 8 0 19 4 25 9 8 9 32 15 159 40 48 10 208 11 250 2z"/>
<path d="M2680 7140 c-91 -5 -187 -14 -215 -20 -27 -6 -84 -15 -125 -20 -100
-13 -160 -26 -171 -37 -6 -6 -13 -1920 -9 -2498 0 -28 91 -55 275 -83 156 -24
646 -24 795 0 235 37 355 73 540 161 146 69 215 120 349 255 174 177 259 343
327 637 27 116 27 494 0 610 -33 146 -43 174 -102 300 -54 117 -98 180 -194
275 -129 129 -183 169 -340 251 -8 5 -37 18 -65 29 -27 12 -59 25 -70 30 -17
7 -79 26 -205 61 -38 10 -117 24 -220 38 -104 15 -391 20 -570 11z"/>
<path d="M8981 8911 c-12 -8 -12 -12 2 -26 16 -15 17 -15 17 9 0 29 0 29 -19
17z"/>
<path d="M3 8795 c0 -33 2 -45 4 -27 2 18 2 45 0 60 -2 15 -4 0 -4 -33z"/>
<path d="M8983 363 c-19 -7 -17 -109 2 -117 12 -4 15 6 15 59 0 36 -1 65 -2
64 -2 0 -9 -3 -15 -6z"/>
<path d="M3 200 c0 -25 2 -35 4 -22 2 12 2 32 0 45 -2 12 -4 2 -4 -23z"/>
<path d="M13 33 c-18 -6 -16 -33 1 -33 15 0 30 27 18 33 -4 3 -13 2 -19 0z"/>
<path d="M8648 3 c18 -2 45 -2 60 0 15 2 0 4 -33 4 -33 0 -45 -2 -27 -4z"/>
</g>
</svg>
